<svg xmlns="http://www.w3.org/2000/svg" width="34.008" height="34" viewBox="0 0 34.008 34"><path d="M17,10.521a8.717,8.717,0,1,0,8.717,8.717A8.7,8.7,0,0,0,17,10.521ZM17,24.9a5.667,5.667,0,1,1,5.667-5.667A5.678,5.678,0,0,1,17,24.9ZM28.109,10.164a2.033,2.033,0,1,1-2.033-2.033A2.029,2.029,0,0,1,28.109,10.164Zm5.774,2.064A10.062,10.062,0,0,0,31.136,5.1c-1.988-1.988-4.4-2.61-7.124-2.746-2.807-.159-11.221-.159-14.028,0A10.114,10.114,0,0,0,2.861,5.1C.865,7.084.251,9.5.114,12.22c-.159,2.807-.159,11.221,0,14.028a10.062,10.062,0,0,0,2.746,7.124,10.141,10.141,0,0,0,7.124,2.746c2.807.159,11.221.159,14.028,0a10.062,10.062,0,0,0,7.124-2.746c1.988-1.988,2.61-4.4,2.746-7.124.159-2.807.159-11.213,0-14.02ZM30.256,29.26a5.738,5.738,0,0,1-3.232,3.232c-2.238.888-7.549.683-10.022.683s-7.792.2-10.022-.683A5.738,5.738,0,0,1,3.748,29.26c-.888-2.238-.683-7.549-.683-10.022s-.2-7.792.683-10.022A5.738,5.738,0,0,1,6.98,5.984C9.218,5.1,14.529,5.3,17,5.3s7.792-.2,10.022.683a5.738,5.738,0,0,1,3.232,3.232c.888,2.238.683,7.549.683,10.022S31.144,27.029,30.256,29.26Z" transform="translate(0.005 -2.238)"/></svg>