<svg xmlns="http://www.w3.org/2000/svg" width="54" height="54" viewBox="0 0 54 54"><g transform="translate(-1068 -514)"><rect width="54" height="54" transform="translate(1068 514)" fill="rgba(255,255,255,0)"/><path d="M2.021,28.777A10.829,10.829,0,0,1,12.376,17.992l.511-.012h2.286a1.825,1.825,0,0,1,.249,3.635l-.249.017H12.887a7.172,7.172,0,0,0-7.179,6.726l-.012.42V40.646a7.165,7.165,0,0,0,6.768,7.131l.422.012H40.156a7.172,7.172,0,0,0,7.178-6.723l.012-.42V28.753A7.141,7.141,0,0,0,40.6,21.644l-.421-.012h-2.31A1.825,1.825,0,0,1,37.623,18l.249-.017h2.31A10.811,10.811,0,0,1,51.009,28.231l.012.522V40.646A10.828,10.828,0,0,1,40.667,51.429l-.511.012H12.887A10.836,10.836,0,0,1,2.033,41.154l-.012-.508ZM25.194,2a1.846,1.846,0,0,1,2.664.01l7.109,7.093a1.818,1.818,0,0,1-.005,2.582,1.847,1.847,0,0,1-2.393.172l-.206-.177-4-3.993v24.89a1.838,1.838,0,0,1-3.658.248l-.017-.248V7.687l-4,4a1.847,1.847,0,0,1-2.392.182l-.206-.176A1.818,1.818,0,0,1,17.9,9.313l.177-.205Z" transform="translate(1068.479 514.56)" fill="#fff" fill-rule="evenodd"/></g></svg>